<svg data-logo="logo" xmlns="http://www.w3.org/2000/svg" viewBox="0 0 426.16 39.08" width="426.16" height="39.08"><g style="opacity: 1;" id="logogram"/><g style="opacity: 1;" id="logotype" transform="translate(.315)"><path fill="#fed136" d="M4.99 31.758H-0.29l9.917 -22.23h5.081L24.644 31.758h-5.399l-8.13 -19.626h2.032zm13.874 -4.764H4.673l1.361 -3.902h11.433zM30.868 31.758h-4.954V8.193h4.954zm19.844 0.381q-2.668 0 -5.108 -0.717 -2.45 -0.717 -3.938 -1.851l1.742 -3.884q1.434 1.016 3.384 1.67t3.956 0.653q1.524 0 2.459 -0.299 0.935 -0.309 1.379 -0.844 0.454 -0.535 0.454 -1.243 0 -0.88 -0.708 -1.406 -0.699 -0.526 -1.842 -0.862 -1.143 -0.327 -2.522 -0.635 -1.379 -0.299 -2.758 -0.744 -1.388 -0.445 -2.532 -1.143t-1.851 -1.842q-0.717 -1.143 -0.717 -2.922 0 -1.905 1.034 -3.475 1.025 -1.579 3.112 -2.513 2.078 -0.935 5.217 -0.935 2.105 0 4.128 0.49 2.032 0.49 3.593 1.479l-1.588 3.902q-1.561 -0.889 -3.112 -1.316 -1.561 -0.426 -3.049 -0.426 -1.497 0 -2.45 0.345 -0.953 0.354 -1.361 0.907 -0.408 0.563 -0.408 1.288 0 0.862 0.69 1.379 0.708 0.526 1.842 0.844 1.143 0.318 2.532 0.635 1.379 0.318 2.758 0.726 1.388 0.417 2.522 1.116 1.152 0.699 1.86 1.842 0.717 1.143 0.717 2.885 0 1.878 -1.053 3.439 -1.043 1.552 -3.121 2.504 -2.087 0.953 -5.263 0.953M77.743 31.758h-4.637v-3.339l-0.318 -0.726v-5.97q0 -1.588 -0.971 -2.477 -0.962 -0.889 -2.967 -0.889 -1.361 0 -2.686 0.426 -1.316 0.426 -2.241 1.161l-1.769 -3.466q1.388 -0.98 3.357 -1.524 1.978 -0.535 4.001 -0.535 3.911 0 6.07 1.842t2.16 5.744zm-9.845 0.254q-1.996 0 -3.43 -0.681 -1.434 -0.69 -2.187 -1.86 -0.762 -1.18 -0.762 -2.64 0 -1.524 0.744 -2.668 0.744 -1.134 2.359 -1.788 1.624 -0.653 4.228 -0.653h4.546v2.894h-4.011q-1.742 0 -2.395 0.563 -0.653 0.572 -0.653 1.434 0 0.953 0.753 1.506 0.744 0.563 2.042 0.563 1.243 0 2.223 -0.59 0.989 -0.59 1.434 -1.733l0.762 2.287q-0.535 1.651 -1.969 2.513 -1.434 0.853 -3.684 0.853m20.833 0q-2.123 0 -3.793 -0.826t-2.586 -2.522q-0.926 -1.706 -0.926 -4.337V14.672h4.954V23.591q0 2.132 0.907 3.13t2.559 0.998q1.143 0 2.032 -0.49 0.88 -0.49 1.397 -1.524 0.508 -1.025 0.508 -2.586v-8.448h4.945V31.758h-4.691v-4.7l0.853 1.361q-0.853 1.778 -2.522 2.686t-3.639 0.907m21.25 0q-2.414 0 -4.355 -1.098 -1.933 -1.089 -3.067 -3.058 -1.125 -1.978 -1.125 -4.637 0 -2.704 1.125 -4.673 1.134 -1.969 3.067 -3.049 1.942 -1.08 4.355 -1.08 2.16 0 3.775 0.953 1.624 0.953 2.513 2.894 0.889 1.933 0.889 4.954 0 2.985 -0.862 4.936 -0.853 1.951 -2.459 2.904t-3.856 0.953m0.853 -4.065q1.207 0 2.196 -0.572 0.98 -0.572 1.57 -1.633t0.59 -2.522q0 -1.497 -0.59 -2.55 -0.59 -1.043 -1.57 -1.615 -0.989 -0.572 -2.196 -0.572 -1.234 0 -2.223 0.572 -0.98 0.572 -1.57 1.615 -0.59 1.053 -0.59 2.55 0 1.461 0.59 2.522t1.57 1.633q0.989 0.572 2.223 0.572M120.044 31.758h-4.727v-3.493l0.091 -5.081 -0.318 -5.054V8.193h4.954zm8.829 0h-4.954V14.672h4.954zm-2.477 -19.472q-1.361 0 -2.223 -0.789 -0.853 -0.798 -0.853 -1.969 0 -1.18 0.853 -1.969 0.862 -0.798 2.223 -0.798 1.37 0 2.223 0.753 0.862 0.744 0.862 1.915 0 1.243 -0.844 2.051t-2.241 0.808M147.9 31.758h-4.646v-3.339l-0.318 -0.726v-5.97q0 -1.588 -0.962 -2.477 -0.971 -0.889 -2.976 -0.889 -1.361 0 -2.677 0.426 -1.325 0.426 -2.241 1.161l-1.778 -3.466q1.397 -0.98 3.366 -1.524 1.969 -0.535 4.001 -0.535 3.911 0 6.07 1.842t2.16 5.744zm-9.845 0.254q-2.005 0 -3.43 -0.681 -1.434 -0.69 -2.196 -1.86 -0.762 -1.18 -0.762 -2.64 0 -1.524 0.744 -2.668 0.744 -1.134 2.368 -1.788 1.615 -0.653 4.219 -0.653h4.546v2.894h-4.001q-1.742 0 -2.395 0.563 -0.653 0.572 -0.653 1.434 0 0.953 0.744 1.506 0.744 0.563 2.051 0.563 1.243 0 2.223 -0.59t1.425 -1.733l0.771 2.287q-0.544 1.651 -1.978 2.513 -1.425 0.853 -3.675 0.853m34.008 -0.254h-5.081l-9.591 -22.23h5.553l8.384 19.69h-3.266l8.511 -19.69h5.108zm15.843 0h-4.954V14.672h4.954zm-2.477 -19.472q-1.361 0 -2.223 -0.789 -0.853 -0.798 -0.853 -1.969 0 -1.18 0.853 -1.969 0.862 -0.798 2.223 -0.798 1.37 0 2.223 0.753 0.862 0.744 0.862 1.915 0 1.243 -0.844 2.051t-2.241 0.808M196.77 31.758h-4.954V14.672h4.727v4.827l-0.662 -1.397q0.762 -1.815 2.441 -2.749 1.688 -0.935 4.101 -0.935v4.573q-0.318 -0.036 -0.572 -0.045 -0.254 -0.018 -0.544 -0.018 -2.032 0 -3.285 1.161 -1.252 1.152 -1.252 3.602zm15.017 0.254q-3.012 0 -4.7 -1.543 -1.679 -1.543 -1.679 -4.591V10.888h4.954v14.926q0 1.08 0.572 1.67t1.552 0.59q1.18 0 2.005 -0.635l1.334 3.493q-0.762 0.544 -1.824 0.808 -1.071 0.272 -2.214 0.272m2.831 -13.529h-11.85v-3.811h11.85zm10.507 13.529q-2.123 0 -3.793 -0.826t-2.586 -2.522q-0.926 -1.706 -0.926 -4.337V14.672h4.954V23.591q0 2.132 0.907 3.13t2.559 0.998q1.143 0 2.032 -0.49t1.397 -1.524q0.508 -1.025 0.508 -2.586v-8.448h4.954V31.758h-4.7v-4.7l0.853 1.361q-0.853 1.778 -2.522 2.686t-3.639 0.907M254.152 31.758h-4.637v-3.339l-0.318 -0.726v-5.97q0 -1.588 -0.962 -2.477 -0.971 -0.889 -2.976 -0.889 -1.361 0 -2.677 0.426 -1.325 0.426 -2.241 1.161l-1.778 -3.466q1.397 -0.98 3.366 -1.524 1.969 -0.535 4.001 -0.535 3.902 0 6.061 1.842t2.16 5.744zm-9.845 0.254q-1.996 0 -3.43 -0.681 -1.425 -0.69 -2.187 -1.86 -0.762 -1.18 -0.762 -2.64 0 -1.524 0.744 -2.668 0.744 -1.134 2.368 -1.788 1.615 -0.653 4.219 -0.653h4.546v2.894h-4.001q-1.751 0 -2.395 0.563 -0.653 0.572 -0.653 1.434 0 0.953 0.744 1.506 0.744 0.563 2.051 0.563 1.234 0 2.223 -0.59 0.98 -0.59 1.425 -1.733l0.762 2.287q-0.535 1.651 -1.969 2.513 -1.425 0.853 -3.684 0.853m18.583 -0.254h-4.954V8.193h4.954zm14.899 0h-5.272l9.908 -22.23h5.081L297.442 31.758h-5.399l-8.13 -19.626h2.032zm13.874 -4.764H277.471l1.361 -3.902h11.433zm15.307 5.018q-2.758 0 -4.918 -1.125t-3.384 -3.13 -1.225 -4.537q0 -2.577 1.225 -4.564 1.225 -1.978 3.384 -3.112 2.16 -1.125 4.918 -1.125 2.704 0 4.7 1.125 2.005 1.134 2.958 3.221l-3.847 2.069q-0.662 -1.207 -1.67 -1.778 -0.998 -0.572 -2.169 -0.572 -1.27 0 -2.287 0.572t-1.606 1.615q-0.59 1.053 -0.59 2.55 0 1.488 0.59 2.532 0.59 1.053 1.606 1.624t2.287 0.572q1.17 0 2.169 -0.553 1.007 -0.563 1.67 -1.797l3.847 2.096q-0.953 2.069 -2.958 3.194 -1.996 1.125 -4.7 1.125m24.934 -0.254h-4.637v-3.339l-0.318 -0.726v-5.97q0 -1.588 -0.971 -2.477t-2.967 -0.889q-1.37 0 -2.686 0.426t-2.241 1.161l-1.778 -3.466q1.397 -0.98 3.366 -1.524 1.969 -0.535 4.001 -0.535 3.911 0 6.07 1.842t2.16 5.744zm-9.845 0.254q-2.005 0 -3.43 -0.681 -1.434 -0.69 -2.196 -1.86 -0.762 -1.18 -0.762 -2.64 0 -1.524 0.744 -2.668 0.753 -1.134 2.368 -1.788 1.624 -0.653 4.228 -0.653h4.537v2.894h-4.001q-1.742 0 -2.395 0.563 -0.653 0.572 -0.653 1.434 0 0.953 0.744 1.506 0.753 0.563 2.051 0.563 1.243 0 2.223 -0.59 0.989 -0.59 1.434 -1.733l0.762 2.287q-0.544 1.651 -1.969 2.513 -1.434 0.853 -3.684 0.853m20.96 0q-2.414 0 -4.355 -1.098 -1.933 -1.089 -3.067 -3.058 -1.125 -1.978 -1.125 -4.637 0 -2.704 1.125 -4.673 1.134 -1.969 3.067 -3.049 1.942 -1.08 4.355 -1.08 2.16 0 3.775 0.953 1.624 0.953 2.513 2.894 0.889 1.933 0.889 4.954 0 2.985 -0.862 4.936 -0.853 1.951 -2.459 2.904t-3.856 0.953m0.853 -4.065q1.207 0 2.196 -0.572 0.98 -0.572 1.57 -1.633t0.59 -2.522q0 -1.497 -0.59 -2.55 -0.59 -1.043 -1.57 -1.615 -0.989 -0.572 -2.196 -0.572 -1.234 0 -2.223 0.572 -0.98 0.572 -1.57 1.615 -0.59 1.053 -0.59 2.55 0 1.461 0.59 2.522t1.57 1.633q0.989 0.572 2.223 0.572m9.21 3.811h-4.727v-3.493l0.091 -5.081 -0.318 -5.054V8.193h4.954zm12.358 0.254q-2.922 0 -5.136 -1.143 -2.205 -1.143 -3.412 -3.13T355.685 23.219q0 -2.577 1.189 -4.564 1.198 -1.978 3.257 -3.112 2.069 -1.125 4.673 -1.125 2.504 0 4.519 1.062 2.023 1.062 3.194 3.049 1.18 1.987 1.18 4.755 0 0.281 -0.036 0.644 -0.027 0.363 -0.064 0.69h-13.874v-2.894h11.269l-1.905 0.853q0 -1.334 -0.535 -2.314 -0.544 -0.989 -1.497 -1.543t-2.223 -0.553 -2.241 0.553q-0.962 0.553 -1.506 1.561 -0.535 0.998 -0.535 2.359v0.771q0 1.397 0.617 2.459t1.742 1.615q1.134 0.563 2.659 0.563 1.361 0 2.395 -0.417t1.887 -1.234l2.64 2.849q-1.18 1.334 -2.958 2.051t-4.092 0.717m15.815 -0.254h-4.954V14.672h4.727v4.664l-0.889 -1.361q0.889 -1.751 2.522 -2.649 1.642 -0.907 3.738 -0.907 2.35 0 4.11 1.189t2.332 3.639l-1.742 -0.481q0.853 -1.996 2.74 -3.176 1.896 -1.17 4.337 -1.17 2.032 0 3.602 0.808 1.579 0.808 2.477 2.477 0.907 1.67 0.907 4.274V31.758h-4.954v-9.019q0 -2.069 -0.853 -3.049 -0.862 -0.989 -2.414 -0.989 -1.08 0 -1.942 0.499 -0.853 0.49 -1.334 1.47 -0.472 0.989 -0.472 2.513V31.758h-4.954v-9.019q0 -2.069 -0.844 -3.049 -0.844 -0.989 -2.395 -0.989 -1.08 0 -1.942 0.499 -0.853 0.49 -1.334 1.47 -0.472 0.989 -0.472 2.513zm29.816 6.415q-1.334 0 -2.631 -0.408 -1.307 -0.417 -2.132 -1.143l1.815 -3.53q0.572 0.508 1.316 0.789 0.744 0.29 1.479 0.29 1.043 0 1.66 -0.49 0.626 -0.49 1.134 -1.642l0.889 -2.087 0.381 -0.544 6.125 -14.736h4.764l-7.713 18.138q-0.826 2.06 -1.896 3.239 -1.062 1.17 -2.35 1.651 -1.279 0.472 -2.84 0.472m6.324 -9.21 -3.403 3.457 -7.622 -17.748h5.118z"/></g></svg>